{
  "accessors": [
    {
      "bufferView": 2,
      "componentType": 5126,
      "count": 49,
      "max": [
        0.27821299433708191,
        -0.10622099786996841,
        1.5269739627838135
      ],
      "min": [
        0.21765099465847015,
        -0.16678300499916077,
        1.354051947593689
      ],
      "type": "VEC3"
    },
    {
      "bufferView": 2,
      "byteOffset": 588,
      "componentType": 5126,
      "count": 49,
      "max": [
        0.92388176918029785,
        0.99060261249542236,
        1
      ],
      "min": [
        -0.9238816499710083,
        -0.9238663911819458,
        0
      ],
      "type": "VEC3"
    },
    {
      "bufferView": 3,
      "componentType": 5126,
      "count": 49,
      "max": [
        0.92386633157730103,
        0.92388182878494263,
        1,
        1
      ],
      "min": [
        -0.92388170957565308,
        -0.92388159036636353,
        0,
        1
      ],
      "type": "VEC4"
    },
    {
      "bufferView": 1,
      "componentType": 5126,
      "count": 49,
      "max": [
        1,
        1
      ],
      "min": [
        0,
        0
      ],
      "type": "VEC2"
    },
    {
      "bufferView": 0,
      "componentType": 5125,
      "count": 72,
      "max": [
        48
      ],
      "min": [
        0
      ],
      "type": "SCALAR"
    },
    {
      "bufferView": 2,
      "byteOffset": 1176,
      "componentType": 5126,
      "count": 244,
      "max": [
        1.2990920543670654,
        1.3162989616394043,
        4.3097219467163086
      ],
      "min": [
        -1.2885110378265381,
        -1.4395300149917603,
        1.2804460525512695
      ],
      "type": "VEC3"
    },
    {
      "bufferView": 2,
      "byteOffset": 4104,
      "componentType": 5126,
      "count": 244,
      "max": [
        1,
        1,
        1
      ],
      "min": [
        -1,
        -1,
        -0.0077570020221173763
      ],
      "type": "VEC3"
    },
    {
      "bufferView": 3,
      "byteOffset": 784,
      "componentType": 5126,
      "count": 244,
      "max": [
        1,
        1,
        0.0038069239817559719,
        1
      ],
      "min": [
        -1,
        -1,
        -0.039872020483016968,
        1
      ],
      "type": "VEC4"
    },
    {
      "bufferView": 1,
      "byteOffset": 392,
      "componentType": 5126,
      "count": 244,
      "max": [
        0.9926760196685791,
        0.99312102794647217
      ],
      "min": [
        0.0013050000416114926,
        -0.00030499999411404133
      ],
      "type": "VEC2"
    },
    {
      "bufferView": 0,
      "byteOffset": 288,
      "componentType": 5125,
      "count": 516,
      "max": [
        243
      ],
      "min": [
        0
      ],
      "type": "SCALAR"
    },
    {
      "bufferView": 2,
      "byteOffset": 7032,
      "componentType": 5126,
      "count": 130,
      "max": [
        1.0029640197753906,
        1.0029640197753906,
        4.4688839912414551
      ],
      "min": [
        -1.0029640197753906,
        -1.2502510547637939,
        1.1291780471801758
      ],
      "type": "VEC3"
    },
    {
      "bufferView": 2,
      "byteOffset": 8592,
      "componentType": 5126,
      "count": 130,
      "max": [
        0.99979722499847412,
        0.99979722499847412,
        0.31592702865600586
      ],
      "min": [
        -0.99979722499847412,
        -0.99979722499847412,
        -0.95773053169250488
      ],
      "type": "VEC3"
    },
    {
      "bufferView": 3,
      "byteOffset": 4688,
      "componentType": 5126,
      "count": 130,
      "max": [
        1,
        0.99992775917053223,
        0.99948090314865112,
        1
      ],
      "min": [
        -0.12779721617698669,
        -0.99992793798446655,
        -0.99948090314865112,
        -1
      ],
      "type": "VEC4"
    },
    {
      "bufferView": 1,
      "byteOffset": 2344,
      "componentType": 5126,
      "count": 130,
      "max": [
        1,
        1
      ],
      "min": [
        0,
        0
      ],
      "type": "VEC2"
    },
    {
      "bufferView": 0,
      "byteOffset": 2352,
      "componentType": 5125,
      "count": 528,
      "max": [
        129
      ],
      "min": [
        0
      ],
      "type": "SCALAR"
    },
    {
      "bufferView": 2,
      "byteOffset": 10152,
      "componentType": 5126,
      "count": 2508,
      "max": [
        0.42379701137542725,
        0.44154500961303711,
        2.7951929569244385
      ],
      "min": [
        -0.50922101736068726,
        -0.3231239914894104,
        1.354051947593689
      ],
      "type": "VEC3"
    },
    {
      "bufferView": 2,
      "byteOffset": 40248,
      "componentType": 5126,
      "count": 2508,
      "max": [
        1,
        1,
        1
      ],
      "min": [
        -1,
        -1,
        -1
      ],
      "type": "VEC3"
    },
    {
      "bufferView": 3,
      "byteOffset": 6768,
      "componentType": 5126,
      "count": 2508,
      "max": [
        1,
        1,
        1,
        1
      ],
      "min": [
        -1,
        -1,
        -1,
        -1
      ],
      "type": "VEC4"
    },
    {
      "bufferView": 1,
      "byteOffset": 3384,
      "componentType": 5126,
      "count": 2508,
      "max": [
        1,
        1
      ],
      "min": [
        0,
        0
      ],
      "type": "VEC2"
    },
    {
      "bufferView": 0,
      "byteOffset": 4464,
      "componentType": 5125,
      "count": 4344,
      "max": [
        2507
      ],
      "min": [
        0
      ],
      "type": "SCALAR"
    },
    {
      "bufferView": 2,
      "byteOffset": 70344,
      "componentType": 5126,
      "count": 558,
      "max": [
        0.71307402849197388,
        0.70697402954101562,
        1.3539730310440063
      ],
      "min": [
        -0.71307402849197388,
        -0.70697402954101562,
        1.3539730310440063
      ],
      "type": "VEC3"
    },
    {
      "bufferView": 2,
      "byteOffset": 77040,
      "componentType": 5126,
      "count": 558,
      "max": [
        0,
        0,
        1
      ],
      "min": [
        0,
        0,
        -1
      ],
      "type": "VEC3"
    },
    {
      "bufferView": 3,
      "byteOffset": 46896,
      "componentType": 5126,
      "count": 558,
      "max": [
        0,
        0,
        0,
        1
      ],
      "min": [
        0,
        0,
        0,
        1
      ],
      "type": "VEC4"
    },
    {
      "bufferView": 1,
      "byteOffset": 23448,
      "componentType": 5126,
      "count": 558,
      "max": [
        1.004601001739502,
        0.99654197692871094
      ],
      "min": [
        0.0046009998768568039,
        0.99654197692871094
      ],
      "type": "VEC2"
    },
    {
      "bufferView": 0,
      "byteOffset": 21840,
      "componentType": 5125,
      "count": 558,
      "max": [
        557
      ],
      "min": [
        0
      ],
      "type": "SCALAR"
    },
    {
      "bufferView": 2,
      "byteOffset": 83736,
      "componentType": 5126,
      "count": 9702,
      "max": [
        1.319383978843689,
        1.319383978843689,
        4.1049399375915527
      ],
      "min": [
        -1.319383978843689,
        -1.319383978843689,
        -0.23622900247573853
      ],
      "type": "VEC3"
    },
    {
      "bufferView": 2,
      "byteOffset": 200160,
      "componentType": 5126,
      "count": 9702,
      "max": [
        0.61534368991851807,
        0.99994850158691406,
        1
      ],
      "min": [
        -0.61534368991851807,
        -1,
        -1
      ],
      "type": "VEC3"
    },
    {
      "bufferView": 3,
      "byteOffset": 55824,
      "componentType": 5126,
      "count": 9702,
      "max": [
        0,
        0,
        0,
        1
      ],
      "min": [
        0,
        0,
        0,
        1
      ],
      "type": "VEC4"
    },
    {
      "bufferView": 1,
      "byteOffset": 27912,
      "componentType": 5126,
      "count": 9702,
      "max": [
        1.004601001739502,
        0.99823802709579468
      ],
      "min": [
        0.0027749999426305294,
        0.99654197692871094
      ],
      "type": "VEC2"
    },
    {
      "bufferView": 0,
      "byteOffset": 24072,
      "componentType": 5125,
      "count": 27588,
      "max": [
        9701
      ],
      "min": [
        0
      ],
      "type": "SCALAR"
    },
    {
      "bufferView": 2,
      "byteOffset": 316584,
      "componentType": 5126,
      "count": 5547,
      "max": [
        1.658128023147583,
        1.658128023147583,
        4.1049399375915527
      ],
      "min": [
        -1.658128023147583,
        -1.658128023147583,
        1.3539730310440063
      ],
      "type": "VEC3"
    },
    {
      "bufferView": 2,
      "byteOffset": 383148,
      "componentType": 5126,
      "count": 5547,
      "max": [
        0.10025201737880707,
        1,
        1
      ],
      "min": [
        -0.10025300085544586,
        -0.99987810850143433,
        -1
      ],
      "type": "VEC3"
    },
    {
      "bufferView": 3,
      "byteOffset": 211056,
      "componentType": 5126,
      "count": 5547,
      "max": [
        0,
        0,
        0,
        1
      ],
      "min": [
        0,
        0,
        0,
        1
      ],
      "type": "VEC4"
    },
    {
      "bufferView": 1,
      "byteOffset": 105528,
      "componentType": 5126,
      "count": 5547,
      "max": [
        1.004601001739502,
        0.99654197692871094
      ],
      "min": [
        0,
        -1.8866009712219238
      ],
      "type": "VEC2"
    },
    {
      "bufferView": 0,
      "byteOffset": 134424,
      "componentType": 5125,
      "count": 14574,
      "max": [
        5546
      ],
      "min": [
        0
      ],
      "type": "SCALAR"
    },
    {
      "bufferView": 2,
      "byteOffset": 449712,
      "componentType": 5126,
      "count": 320,
      "max": [
        0.85791897773742676,
        -0.7944830060005188,
        5.0473661422729492
      ],
      "min": [
        -0.85791897773742676,
        -1.021757960319519,
        4.6012601852416992
      ],
      "type": "VEC3"
    },
    {
      "bufferView": 2,
      "byteOffset": 453552,
      "componentType": 5126,
      "count": 320,
      "max": [
        0.97880136966705322,
        0.017351675778627396,
        0.99403470754623413
      ],
      "min": [
        -0.97880136966705322,
        -0.9998478889465332,
        -0.99403464794158936
      ],
      "type": "VEC3"
    },
    {
      "bufferView": 3,
      "byteOffset": 299808,
      "componentType": 5126,
      "count": 320,
      "max": [
        0.99990731477737427,
        0.93410795927047729,
        0.99695402383804321,
        1
      ],
      "min": [
        -0.99990731477737427,
        -0.93459850549697876,
        -0.99836957454681396,
        -1
      ],
      "type": "VEC4"
    },
    {
      "bufferView": 1,
      "byteOffset": 149904,
      "componentType": 5126,
      "count": 320,
      "max": [
        0.49372899532318115,
        0.059239000082015991
      ],
      "min": [
        0.004883000161498785,
        0.004883000161498785
      ],
      "type": "VEC2"
    },
    {
      "bufferView": 0,
      "byteOffset": 192720,
      "componentType": 5125,
      "count": 1020,
      "max": [
        319
      ],
      "min": [
        0
      ],
      "type": "SCALAR"
    },
    {
      "bufferView": 2,
      "byteOffset": 457392,
      "componentType": 5126,
      "count": 6812,
      "max": [
        2.7090940475463867,
        1.4446220397949219,
        5.9616317749023438
      ],
      "min": [
        -2.7090940475463867,
        -1.26249098777771,
        -0.076728001236915588
      ],
      "type": "VEC3"
    },
    {
      "bufferView": 2,
      "byteOffset": 539136,
      "componentType": 5126,
      "count": 6812,
      "max": [
        1,
        1,
        1
      ],
      "min": [
        -1,
        -1,
        -1
      ],
      "type": "VEC3"
    },
    {
      "bufferView": 3,
      "byteOffset": 304928,
      "componentType": 5126,
      "count": 6812,
      "max": [
        1,
        0.99999284744262695,
        1,
        1
      ],
      "min": [
        -1,
        -0.99999594688415527,
        -1,
        -1
      ],
      "type": "VEC4"
    },
    {
      "bufferView": 1,
      "byteOffset": 152464,
      "componentType": 5126,
      "count": 6812,
      "max": [
        0.99443000555038452,
        0.99511700868606567
      ],
      "min": [
        0.004883000161498785,
        0.004883000161498785
      ],
      "type": "VEC2"
    },
    {
      "bufferView": 0,
      "byteOffset": 196800,
      "componentType": 5125,
      "count": 32868,
      "max": [
        6811
      ],
      "min": [
        0
      ],
      "type": "SCALAR"
    }
  ],
  "asset": {
    "extras": {
      "author": "ediediedi (https://sketchfab.com/ediediedi)",
      "license": "CC-BY-4.0 (http://creativecommons.org/licenses/by/4.0/)",
      "source": "https://sketchfab.com/3d-models/welcome-to-mora-b518be654bc0474bbdbefe763721dafc",
      "title": "Welcome to Mora"
    },
    "generator": "Sketchfab-5.22.0",
    "version": "2.0"
  },
  "bufferViews": [
    {
      "buffer": 0,
      "byteLength": 328272,
      "byteOffset": 0,
      "name": "floatBufferViews",
      "target": 34963
    },
    {
      "buffer": 0,
      "byteLength": 206960,
      "byteOffset": 328272,
      "byteStride": 8,
      "name": "floatBufferViews",
      "target": 34962
    },
    {
      "buffer": 0,
      "byteLength": 620880,
      "byteOffset": 535232,
      "byteStride": 12,
      "name": "floatBufferViews",
      "target": 34962
    },
    {
      "buffer": 0,
      "byteLength": 413920,
      "byteOffset": 1156112,
      "byteStride": 16,
      "name": "floatBufferViews",
      "target": 34962
    }
  ],
  "buffers": [
    {
      "byteLength": 1570032,
      "uri": "scene.bin"
    }
  ],
  "images": [
    {
      "uri": "textures/hologram_base_baseColor.png"
    },
    {
      "uri": "textures/robot_metallicRoughness.png"
    },
    {
      "uri": "textures/robot_baseColor.png"
    },
    {
      "uri": "textures/robot_emissive.png"
    },
    {
      "uri": "textures/robot_normal.png"
    },
    {
      "uri": "textures/hologram_city_baseColor.png"
    },
    {
      "uri": "textures/hologram_city_emissive.png"
    },
    {
      "uri": "textures/hologram01_baseColor.png"
    },
    {
      "uri": "textures/hologram01_emissive.png"
    }
  ],
  "materials": [
    {
      "alphaMode": "BLEND",
      "doubleSided": false,
      "emissiveFactor": [
        1,
        1,
        1
      ],
      "emissiveTexture": {
        "index": 8,
        "texCoord": 0
      },
      "name": "hologram01",
      "pbrMetallicRoughness": {
        "baseColorFactor": [
          0,
          0,
          0,
          1
        ],
        "baseColorTexture": {
          "index": 7,
          "texCoord": 0
        },
        "metallicFactor": 0,
        "roughnessFactor": 0.59999999999999998
      }
    },
    {
      "alphaMode": "BLEND",
      "doubleSided": false,
      "emissiveFactor": [
        0.069320480995439748,
        0.39934051962599798,
        1
      ],
      "name": "hologram_base",
      "pbrMetallicRoughness": {
        "baseColorFactor": [
          0,
          0,
          0,
          1
        ],
        "baseColorTexture": {
          "index": 0,
          "texCoord": 0
        },
        "metallicFactor": 0,
        "roughnessFactor": 0.59999999999999998
      }
    },
    {
      "alphaMode": "BLEND",
      "doubleSided": true,
      "emissiveFactor": [
        1,
        1,
        1
      ],
      "emissiveTexture": {
        "index": 6,
        "texCoord": 0
      },
      "name": "hologram_city",
      "pbrMetallicRoughness": {
        "baseColorFactor": [
          0,
          0,
          0,
          1
        ],
        "baseColorTexture": {
          "index": 5,
          "texCoord": 0
        },
        "metallicFactor": 0,
        "roughnessFactor": 0.59999999999999998
      }
    },
    {
      "alphaMode": "BLEND",
      "doubleSided": true,
      "emissiveFactor": [
        0.15317205937745168,
        0.49830574589787713,
        1
      ],
      "name": "hologram_plain",
      "pbrMetallicRoughness": {
        "baseColorFactor": [
          0,
          0,
          0,
          0.79439786590000006
        ],
        "metallicFactor": 0,
        "roughnessFactor": 0.59999999999999998
      }
    },
    {
      "doubleSided": true,
      "emissiveFactor": [
        1,
        1,
        1
      ],
      "emissiveTexture": {
        "index": 3,
        "texCoord": 0
      },
      "name": "robot",
      "normalTexture": {
        "index": 4,
        "scale": 1,
        "texCoord": 0
      },
      "occlusionTexture": {
        "index": 1,
        "strength": 1,
        "texCoord": 0
      },
      "pbrMetallicRoughness": {
        "baseColorFactor": [
          1,
          1,
          1,
          1
        ],
        "baseColorTexture": {
          "index": 2,
          "texCoord": 0
        },
        "metallicFactor": 1,
        "metallicRoughnessTexture": {
          "index": 1,
          "texCoord": 0
        },
        "roughnessFactor": 1
      }
    }
  ],
  "meshes": [
    {
      "primitives": [
        {
          "attributes": {
            "NORMAL": 1,
            "POSITION": 0,
            "TANGENT": 2,
            "TEXCOORD_0": 3
          },
          "indices": 4,
          "material": 2,
          "mode": 4
        }
      ]
    },
    {
      "primitives": [
        {
          "attributes": {
            "NORMAL": 6,
            "POSITION": 5,
            "TANGENT": 7,
            "TEXCOORD_0": 8
          },
          "indices": 9,
          "material": 0,
          "mode": 4
        }
      ]
    },
    {
      "primitives": [
        {
          "attributes": {
            "NORMAL": 11,
            "POSITION": 10,
            "TANGENT": 12,
            "TEXCOORD_0": 13
          },
          "indices": 14,
          "material": 1,
          "mode": 4
        }
      ]
    },
    {
      "primitives": [
        {
          "attributes": {
            "NORMAL": 16,
            "POSITION": 15,
            "TANGENT": 17,
            "TEXCOORD_0": 18
          },
          "indices": 19,
          "material": 2,
          "mode": 4
        }
      ]
    },
    {
      "primitives": [
        {
          "attributes": {
            "NORMAL": 21,
            "POSITION": 20,
            "TANGENT": 22,
            "TEXCOORD_0": 23
          },
          "indices": 24,
          "material": 3,
          "mode": 4
        }
      ]
    },
    {
      "primitives": [
        {
          "attributes": {
            "NORMAL": 26,
            "POSITION": 25,
            "TANGENT": 27,
            "TEXCOORD_0": 28
          },
          "indices": 29,
          "material": 3,
          "mode": 4
        }
      ]
    },
    {
      "primitives": [
        {
          "attributes": {
            "NORMAL": 31,
            "POSITION": 30,
            "TANGENT": 32,
            "TEXCOORD_0": 33
          },
          "indices": 34,
          "material": 3,
          "mode": 4
        }
      ]
    },
    {
      "primitives": [
        {
          "attributes": {
            "NORMAL": 36,
            "POSITION": 35,
            "TANGENT": 37,
            "TEXCOORD_0": 38
          },
          "indices": 39,
          "material": 4,
          "mode": 4
        }
      ]
    },
    {
      "primitives": [
        {
          "attributes": {
            "NORMAL": 41,
            "POSITION": 40,
            "TANGENT": 42,
            "TEXCOORD_0": 43
          },
          "indices": 44,
          "material": 4,
          "mode": 4
        }
      ]
    }
  ],
  "nodes": [
    {
      "children": [
        1
      ],
      "name": "RootNode (gltf orientation matrix)",
      "rotation": [
        -0.70710678118654746,
        -0,
        -0,
        0.70710678118654757
      ]
    },
    {
      "children": [
        2
      ],
      "name": "RootNode (model correction matrix)"
    },
    {
      "children": [
        3,
        4,
        5,
        6,
        7,
        8,
        9,
        10,
        11
      ],
      "name": "testtest5.obj.cleaner.materialmerger.gles"
    },
    {
      "mesh": 0,
      "name": ""
    },
    {
      "mesh": 1,
      "name": ""
    },
    {
      "mesh": 2,
      "name": ""
    },
    {
      "mesh": 3,
      "name": ""
    },
    {
      "mesh": 4,
      "name": ""
    },
    {
      "mesh": 5,
      "name": ""
    },
    {
      "mesh": 6,
      "name": ""
    },
    {
      "mesh": 7,
      "name": ""
    },
    {
      "mesh": 8,
      "name": ""
    }
  ],
  "samplers": [
    {
      "magFilter": 9729,
      "minFilter": 9987,
      "wrapS": 10497,
      "wrapT": 10497
    }
  ],
  "scene": 0,
  "scenes": [
    {
      "name": "OSG_Scene",
      "nodes": [
        0
      ]
    }
  ],
  "textures": [
    {
      "sampler": 0,
      "source": 0
    },
    {
      "sampler": 0,
      "source": 1
    },
    {
      "sampler": 0,
      "source": 2
    },
    {
      "sampler": 0,
      "source": 3
    },
    {
      "sampler": 0,
      "source": 4
    },
    {
      "sampler": 0,
      "source": 5
    },
    {
      "sampler": 0,
      "source": 6
    },
    {
      "sampler": 0,
      "source": 7
    },
    {
      "sampler": 0,
      "source": 8
    }
  ]
}

